<svg width="93" height="13" viewBox="0 0 93 13" fill="white" xmlns="http://www.w3.org/2000/svg">
<path d="M0.8 11.76L1.76 11.52V1.28L0.8 1.04V0.799999H5.12C6.74133 0.799999 7.93067 1.06133 8.688 1.584C9.456 2.096 9.84 2.768 9.84 3.6C9.84 4.176 9.67467 4.64 9.344 4.992C9.01333 5.344 8.592 5.60533 8.08 5.776C7.536 5.968 6.94933 6.06933 6.32 6.08V6.16C7.09867 6.192 7.776 6.30933 8.352 6.512C8.93867 6.704 9.424 7.00267 9.808 7.408C10.2027 7.81333 10.4 8.33067 10.4 8.96C10.4 9.90933 10.0107 10.656 9.232 11.2C8.45333 11.7333 7.18933 12 5.44 12H0.8V11.76ZM5.12 5.92C5.472 5.92 5.79733 5.824 6.096 5.632C6.40533 5.42933 6.65067 5.152 6.832 4.8C7.024 4.43733 7.12 4.03733 7.12 3.6C7.12 3.13067 7.024 2.71467 6.832 2.352C6.65067 1.98933 6.40533 1.70667 6.096 1.504C5.79733 1.30133 5.472 1.2 5.12 1.2H4.4V5.92H5.12ZM5.44 11.6C6.10133 11.6 6.64 11.3653 7.056 10.896C7.472 10.4267 7.68 9.78133 7.68 8.96C7.68 8.13867 7.472 7.49333 7.056 7.024C6.64 6.55467 6.10133 6.32 5.44 6.32H4.4V11.6H5.44ZM11.675 12V11.76L12.635 11.52V1.28L11.675 1.04V0.799999H16.235V1.04L15.275 1.28V11.52L16.235 11.76V12H11.675ZM17.675 11.76L18.635 11.52V1.28L17.675 1.04V0.799999H22.235V1.04L21.275 1.28V11.6H24.715C24.715 10.928 24.8857 10.304 25.227 9.728C25.3763 9.48267 25.5523 9.28 25.755 9.12H26.235V12H17.675V11.76ZM26.3206 11.76L27.6006 11.28L32.0006 0.639999H32.4806L37.0406 11.52L37.8406 11.76V12H35.9206C35.366 12 34.9126 11.8773 34.5606 11.632C34.2086 11.376 33.9473 11.0453 33.7766 10.64L32.9606 8.72H29.1366L28.0806 11.28L29.2806 11.76V12H26.3206V11.76ZM29.2966 8.32H32.8006L31.0406 4.112L29.2966 8.32ZM39.7556 3.52V11.28L41.0356 11.76V12H37.9956V11.76L39.2756 11.28V1.36L38.1556 1.04V0.799999H39.8356C40.401 0.799999 40.8436 0.901333 41.1636 1.104C41.4836 1.30667 41.7876 1.57867 42.0756 1.92L47.1956 7.92V1.52L45.9156 1.04V0.799999H48.9556V1.04L47.6756 1.52V12.24H47.1956L39.7556 3.52ZM50.0031 11.76L50.9631 11.52V1.28L50.0031 1.04V0.799999H58.5631V3.68H58.0831C57.8805 3.52 57.7045 3.31733 57.5551 3.072C57.2138 2.496 57.0431 1.872 57.0431 1.2H53.6031V6.24H55.4431C55.5178 5.83467 55.6565 5.456 55.8591 5.104C55.9445 4.944 56.0458 4.78933 56.1631 4.64H56.6431V8.24H56.1631C56.0458 8.09067 55.9445 7.936 55.8591 7.776C55.6565 7.424 55.5178 7.04533 55.4431 6.64H53.6031V11.6H57.3631C57.3631 10.928 57.5338 10.304 57.8751 9.728C58.0245 9.48267 58.2005 9.28 58.4031 9.12H58.8831V12H50.0031V11.76ZM61.7556 3.52V11.28L63.0356 11.76V12H59.9956V11.76L61.2756 11.28V1.36L60.1556 1.04V0.799999H61.8356C62.401 0.799999 62.8436 0.901333 63.1636 1.104C63.4836 1.30667 63.7876 1.57867 64.0756 1.92L69.1956 7.92V1.52L67.9156 1.04V0.799999H70.9556V1.04L69.6756 1.52V12.24H69.1956L61.7556 3.52ZM77.5194 12.24C75.8127 12.24 74.4794 11.7333 73.5194 10.72C72.5594 9.70667 72.0794 8.26667 72.0794 6.4C72.0794 5.17333 72.2874 4.12267 72.7034 3.248C73.13 2.36267 73.722 1.696 74.4794 1.248C75.2474 0.789333 76.1327 0.559999 77.1354 0.559999C77.7434 0.559999 78.3567 0.735999 78.9754 1.088C79.21 1.216 79.4447 1.38667 79.6794 1.6C79.8607 1.32267 80.0474 1.104 80.2394 0.943999C80.4314 0.805333 80.538 0.730666 80.5594 0.719999H80.9594V3.76H80.3194C80.1807 3.248 79.9727 2.784 79.6954 2.368C79.4394 1.96267 79.1194 1.62667 78.7354 1.36C78.362 1.09333 77.93 0.959999 77.4394 0.959999C76.7034 0.959999 76.09 1.38667 75.5994 2.24C75.1194 3.09333 74.8794 4.48 74.8794 6.4C74.8794 8.352 75.1407 9.74933 75.6634 10.592C76.1967 11.424 76.922 11.84 77.8394 11.84C78.3407 11.84 78.8154 11.7013 79.2634 11.424C79.722 11.136 80.09 10.7573 80.3674 10.288C80.6554 9.81867 80.7994 9.32267 80.7994 8.8H81.1994C81.1994 9.408 81.034 9.97867 80.7034 10.512C80.3834 11.0347 79.9407 11.456 79.3754 11.776C78.8207 12.0853 78.202 12.24 77.5194 12.24ZM87.3731 12.24C86.3278 12.24 85.4105 12.016 84.6211 11.568C83.8425 11.1093 83.2398 10.4427 82.8131 9.568C82.3865 8.69333 82.1731 7.63733 82.1731 6.4C82.1731 5.16267 82.3865 4.10667 82.8131 3.232C83.2398 2.35733 83.8425 1.696 84.6211 1.248C85.4105 0.789333 86.3278 0.559999 87.3731 0.559999C88.4185 0.559999 89.3305 0.789333 90.1091 1.248C90.8985 1.696 91.5065 2.35733 91.9331 3.232C92.3598 4.10667 92.5731 5.16267 92.5731 6.4C92.5731 7.63733 92.3598 8.69333 91.9331 9.568C91.5065 10.4427 90.8985 11.1093 90.1091 11.568C89.3305 12.016 88.4185 12.24 87.3731 12.24ZM87.3731 11.92C87.7891 11.92 88.1731 11.744 88.5251 11.392C88.8878 11.04 89.1865 10.4533 89.4211 9.632C89.6558 8.81067 89.7731 7.73333 89.7731 6.4C89.7731 5.06667 89.6558 3.98933 89.4211 3.168C89.1865 2.34667 88.8878 1.76 88.5251 1.408C88.1731 1.056 87.7891 0.879999 87.3731 0.879999C86.9571 0.879999 86.5678 1.056 86.2051 1.408C85.8531 1.76 85.5598 2.34667 85.3251 3.168C85.0905 3.98933 84.9731 5.06667 84.9731 6.4C84.9731 7.73333 85.0905 8.81067 85.3251 9.632C85.5598 10.4533 85.8531 11.04 86.2051 11.392C86.5678 11.744 86.9571 11.92 87.3731 11.92Z" />
</svg>
